<svg id="Layer_1" data-name="Layer 1" xmlns="http://www.w3.org/2000/svg" viewBox="0 0 792.17 175.51"><defs><style>.cls-1{fill:#222323;}.cls-2{fill:#5461a9;}</style></defs><polygon class="cls-1" points="0 175.51 44.45 175.51 44.45 43.88 66.85 43.88 66.85 109.86 111.3 109.86 111.3 0 0 0 0 175.51"/><rect class="cls-1" x="149.54" width="44.45" height="175.51"/><polygon class="cls-1" points="299.09 111.57 278.76 131.63 276.69 131.63 276.69 0 232.24 0 232.24 175.51 297.02 175.51 343.54 129.93 343.54 0 299.09 0 299.09 111.57"/><path class="cls-1" d="M385.7,237.76H497V193.88H430.15V172.11H497V62.24H385.7Zm44.45-131.64h22.4v22.11h-22.4Z" transform="translate(-3.91 -62.24)"/><polygon class="cls-1" points="531.33 175.51 575.78 175.51 575.78 43.88 598.18 43.88 598.18 109.86 642.63 109.86 642.63 0 531.33 0 531.33 175.51"/><polygon class="cls-1" points="680.87 0 680.87 175.51 725.32 175.51 725.32 43.88 747.72 43.88 747.72 109.86 792.17 109.86 792.17 0 680.87 0"/><rect class="cls-2" x="747.27" y="131.63" width="44.45" height="43.88"/></svg>